<?xml version="1.0" encoding="utf-8"?>
<svg width="23" height="23" viewBox="0 0 23 23" fill="none" xmlns="http://www.w3.org/2000/svg">
  <defs>
    <clipPath id="half-mask">
      <rect x="8" y="0" width="11.5" height="23" />
    </clipPath>
  </defs>
  <path d="M 5.409 12.994 C 6.025 15.13 9.051 15.13 9.666 12.994 C 9.94 12.046 10.808 11.393 11.795 11.393 L 11.904 11.393 C 14.121 11.393 15.114 8.612 13.398 7.207 L 12.962 6.85 C 12.214 6.238 11.903 5.239 12.171 4.311 L 12.385 3.568 C 12.976 1.517 10.568 -0.07 8.916 1.282 C 8.114 1.938 6.961 1.938 6.16 1.282 C 4.508 -0.07 2.099 1.517 2.691 3.568 L 2.905 4.311 C 3.173 5.239 2.862 6.238 2.114 6.85 L 1.677 7.207 C -0.038 8.612 0.955 11.393 3.172 11.393 L 3.281 11.393 C 4.268 11.393 5.136 12.046 5.409 12.994 Z" clip-path="url(#half-mask)" style="fill: rgb(227, 23, 10); transform-origin: 11.134px 7.68797px;" transform="matrix(-1, 0, 0, -1, -7.192186824964, -0.000001432395)"/>
</svg>